<?xml version="1.0" encoding="UTF-8"?>
<svg width="20px" height="20px" viewBox="0 0 20 20" version="1.1" xmlns="http://www.w3.org/2000/svg" xmlns:xlink="http://www.w3.org/1999/xlink">
    <!-- Generator: Sketch 55 (78076) - https://sketchapp.com -->
    <title>Lock</title>
    <desc>Created with Sketch.</desc>
    <g id="Lock" stroke="none" stroke-width="1" fill="none" fill-rule="evenodd">
        <path d="M5.5375,8.46547619 L4.75,8.46547619 C4.29278986,8.46547619 3.9,8.87429828 3.9,9.38690476 L3.9,17.1785714 C3.9,17.6911779 4.29278986,18.1 4.75,18.1 L15.25,18.1 C15.7072101,18.1 16.1,17.6911779 16.1,17.1785714 L16.1,9.38690476 C16.1,8.87429828 15.7072101,8.46547619 15.25,8.46547619 L14.41875,8.46547619 L10,8.46547619 L5.5375,8.46547619 Z M6.525,6.66547619 L10,6.66547619 C11.2,6.66547619 11.2,8.46547619 10,8.46547619 C8.8,8.46547619 8.8,6.66547619 10,6.66547619 L13.475,6.66547619 L13.475,5.74404762 C13.475,3.93602221 12.1556374,2.9 10,2.9 C7.84436261,2.9 6.525,3.93602221 6.525,5.74404762 L6.525,6.66547619 Z M10,16.2065476 C8.53221014,16.2065476 7.35,14.976084 7.35,13.485119 C7.35,11.9941541 8.53221014,10.7636905 10,10.7636905 C11.4677899,10.7636905 12.65,11.9941541 12.65,13.485119 C12.65,14.976084 11.4677899,16.2065476 10,16.2065476 Z M10,14.4065476 C10.4572101,14.4065476 10.85,13.9977255 10.85,13.485119 C10.85,12.9725126 10.4572101,12.5636905 10,12.5636905 C9.54278986,12.5636905 9.15,12.9725126 9.15,13.485119 C9.15,13.9977255 9.54278986,14.4065476 10,14.4065476 Z M15.275,5.74404762 L15.275,6.66559526 C16.7311905,6.67947201 17.9,7.90441415 17.9,9.38690476 L17.9,17.1785714 C17.9,18.6695364 16.7177899,19.9 15.25,19.9 L4.75,19.9 C3.28221014,19.9 2.1,18.6695364 2.1,17.1785714 L2.1,9.38690476 C2.1,7.90441415 3.26880946,6.67947201 4.725,6.66559526 L4.725,5.74404762 C4.725,2.83353317 6.93263495,1.1 10,1.1 C13.067365,1.1 15.275,2.83353317 15.275,5.74404762 Z M10,6.66547619 L10,8.46547619 L10,6.66547619 Z" id="Combined-Shape" fill="#B0BAC9" fill-rule="nonzero"></path>
    </g>
</svg>