<?xml version="1.0" encoding="UTF-8"?>
<svg width="220px" height="150px" viewBox="0 0 220 150" version="1.1" xmlns="http://www.w3.org/2000/svg" xmlns:xlink="http://www.w3.org/1999/xlink">
    <!-- Generator: Sketch 55 (78076) - https://sketchapp.com -->
    <title>quote</title>
    <desc>Created with Sketch.</desc>
    <g id="quote" stroke="none" stroke-width="1" fill="none" fill-rule="evenodd">
        <g transform="translate(109.000000, 72.000000) rotate(-360.000000) translate(-109.000000, -72.000000) " fill="#FFC80A" id="Shape">
            <path d="M210.685085,14.1053507 C178.048085,14.1053507 149.861085,33.5253507 136.906085,61.4493507 C143.587085,57.3493507 151.432085,54.9853507 159.819085,54.9853507 C184.126085,54.9853507 203.929085,74.8403507 203.929085,99.2543507 C203.929085,123.668351 184.126085,143.526351 159.819085,143.526351 C135.513085,143.526351 115.742085,123.668351 115.742085,99.2543507 C115.742085,98.3873507 115.774085,97.5243507 115.823085,96.6673507 C115.792085,96.4003507 115.742085,96.1373507 115.742085,95.8623507 C115.742085,43.2763507 158.329085,0.506350678 210.685085,0.506350678 C214.460085,0.506350678 217.474085,3.52835068 217.474085,7.28235068 C217.474085,11.0833507 214.460085,14.1053507 210.685085,14.1053507 L210.685085,14.1053507 Z M95.4100855,14.1053507 C62.7620855,14.1053507 34.5500855,33.5373507 21.5920855,61.4763507 C28.2810855,57.3593507 36.1400855,54.9853507 44.5430855,54.9853507 C68.8500855,54.9853507 88.6200855,74.8403507 88.6200855,99.2543507 C88.6200855,123.668351 68.8500855,143.526351 44.5430855,143.526351 C20.2410855,143.526351 0.471085478,123.668351 0.471085478,99.2543507 C0.471085478,98.3883507 0.503085478,97.5283507 0.553085478,96.6733507 C0.520085478,96.4053507 0.471085478,96.1403507 0.471085478,95.8623507 C0.471085478,43.2763507 43.0540855,0.506350678 95.4100855,0.506350678 C99.1520855,0.506350678 102.202085,3.52835068 102.202085,7.28235068 C102.202085,11.0833507 99.1520855,14.1053507 95.4100855,14.1053507 L95.4100855,14.1053507 Z"></path>
        </g>
    </g>
</svg>