<?xml version="1.0" encoding="UTF-8"?>
<svg width="90px" height="71px" viewBox="0 0 90 71" version="1.1" xmlns="http://www.w3.org/2000/svg" xmlns:xlink="http://www.w3.org/1999/xlink">
    <!-- Generator: Sketch 55 (78076) - https://sketchapp.com -->
    <title>Combined Shape</title>
    <desc>Created with Sketch.</desc>
    <g id="Page-1" stroke="none" stroke-width="1" fill="none" fill-rule="evenodd">
        <g id="Artboard" transform="translate(-105.000000, -149.000000)" fill="#2E5BFF">
            <path d="M111,161 C107.686292,161 105,158.313708 105,155 C105,151.686292 107.686292,149 111,149 C114.313708,149 117,151.686292 117,155 C117,158.313708 114.313708,161 111,161 Z M138,161 C134.686292,161 132,158.313708 132,155 C132,151.686292 134.686292,149 138,149 C141.313708,149 144,151.686292 144,155 C144,158.313708 141.313708,161 138,161 Z M165,161 C161.686292,161 159,158.313708 159,155 C159,151.686292 161.686292,149 165,149 C168.313708,149 171,151.686292 171,155 C171,158.313708 168.313708,161 165,161 Z M189,161 C185.686292,161 183,158.313708 183,155 C183,151.686292 185.686292,149 189,149 C192.313708,149 195,151.686292 195,155 C195,158.313708 192.313708,161 189,161 Z M111,181 C107.686292,181 105,178.313708 105,175 C105,171.686292 107.686292,169 111,169 C114.313708,169 117,171.686292 117,175 C117,178.313708 114.313708,181 111,181 Z M138,181 C134.686292,181 132,178.313708 132,175 C132,171.686292 134.686292,169 138,169 C141.313708,169 144,171.686292 144,175 C144,178.313708 141.313708,181 138,181 Z M165,181 C161.686292,181 159,178.313708 159,175 C159,171.686292 161.686292,169 165,169 C168.313708,169 171,171.686292 171,175 C171,178.313708 168.313708,181 165,181 Z M189,181 C185.686292,181 183,178.313708 183,175 C183,171.686292 185.686292,169 189,169 C192.313708,169 195,171.686292 195,175 C195,178.313708 192.313708,181 189,181 Z M111,200 C107.686292,200 105,197.313708 105,194 C105,190.686292 107.686292,188 111,188 C114.313708,188 117,190.686292 117,194 C117,197.313708 114.313708,200 111,200 Z M138,200 C134.686292,200 132,197.313708 132,194 C132,190.686292 134.686292,188 138,188 C141.313708,188 144,190.686292 144,194 C144,197.313708 141.313708,200 138,200 Z M165,200 C161.686292,200 159,197.313708 159,194 C159,190.686292 161.686292,188 165,188 C168.313708,188 171,190.686292 171,194 C171,197.313708 168.313708,200 165,200 Z M189,200 C185.686292,200 183,197.313708 183,194 C183,190.686292 185.686292,188 189,188 C192.313708,188 195,190.686292 195,194 C195,197.313708 192.313708,200 189,200 Z M111,220 C107.686292,220 105,217.313708 105,214 C105,210.686292 107.686292,208 111,208 C114.313708,208 117,210.686292 117,214 C117,217.313708 114.313708,220 111,220 Z M138,220 C134.686292,220 132,217.313708 132,214 C132,210.686292 134.686292,208 138,208 C141.313708,208 144,210.686292 144,214 C144,217.313708 141.313708,220 138,220 Z M165,220 C161.686292,220 159,217.313708 159,214 C159,210.686292 161.686292,208 165,208 C168.313708,208 171,210.686292 171,214 C171,217.313708 168.313708,220 165,220 Z M189,220 C185.686292,220 183,217.313708 183,214 C183,210.686292 185.686292,208 189,208 C192.313708,208 195,210.686292 195,214 C195,217.313708 192.313708,220 189,220 Z" id="Combined-Shape"></path>
        </g>
    </g>
</svg>